<?xml version="1.0" encoding="UTF-8"?>
<!DOCTYPE svg PUBLIC "-//W3C//DTD SVG 1.1//EN" "http://www.w3.org/Graphics/SVG/1.1/DTD/svg11.dtd">
<svg xmlns="http://www.w3.org/2000/svg" version="1.1" width="512px" height="512px" style="shape-rendering:geometricPrecision; text-rendering:geometricPrecision; image-rendering:optimizeQuality; fill-rule:evenodd; clip-rule:evenodd" xmlns:xlink="http://www.w3.org/1999/xlink">
<g><path style="opacity:0.998" fill="#fff5f5" d="M 34.5,-0.5 C 108.167,-0.5 181.833,-0.5 255.5,-0.5C 255.5,22.8333 255.5,46.1667 255.5,69.5C 173.166,69.6667 90.8327,69.5 8.5,69C 4.31481,67.3122 1.31481,64.4788 -0.5,60.5C -0.5,51.8333 -0.5,43.1667 -0.5,34.5C 4.83333,16.5 16.5,4.83333 34.5,-0.5 Z"/></g>
<g><path style="opacity:1" fill="#e2dff4" d="M 255.5,-0.5 C 329.167,-0.5 402.833,-0.5 476.5,-0.5C 494.5,4.83333 506.167,16.5 511.5,34.5C 511.5,46.1667 511.5,57.8333 511.5,69.5C 501.5,69.5 491.5,69.5 481.5,69.5C 406.167,69.5 330.833,69.5 255.5,69.5C 255.5,46.1667 255.5,22.8333 255.5,-0.5 Z"/></g>
<g><path style="opacity:1" fill="#fe1f3c" d="M 481.5,69.5 C 491.5,69.5 501.5,69.5 511.5,69.5C 511.5,193.5 511.5,317.5 511.5,441.5C 501.5,441.5 491.5,441.5 481.5,441.5C 481.5,317.5 481.5,193.5 481.5,69.5 Z"/></g>
<g><path style="opacity:0.997" fill="#ff8659" d="M 154.5,151.5 C 154.5,171.5 154.5,191.5 154.5,211.5C 102.833,211.5 51.1667,211.5 -0.5,211.5C -0.5,203.167 -0.5,194.833 -0.5,186.5C 4.65165,168.516 16.3183,157.016 34.5,152C 74.4986,151.5 114.499,151.333 154.5,151.5 Z"/></g>
<g><path style="opacity:1" fill="#ff1f3d" d="M 154.5,151.5 C 195.881,151.022 237.214,151.522 278.5,153C 294.605,158.771 304.772,169.938 309,186.5C 309.5,194.827 309.666,203.16 309.5,211.5C 257.833,211.5 206.167,211.5 154.5,211.5C 154.5,191.5 154.5,171.5 154.5,151.5 Z"/></g>
<g><path style="opacity:1" fill="#8cbcff" d="M -0.5,211.5 C 51.1667,211.5 102.833,211.5 154.5,211.5C 154.5,254.833 154.5,298.167 154.5,341.5C 102.833,341.5 51.1667,341.5 -0.5,341.5C -0.5,298.167 -0.5,254.833 -0.5,211.5 Z"/></g>
<g><path style="opacity:1" fill="#4895ff" d="M 154.5,211.5 C 206.167,211.5 257.833,211.5 309.5,211.5C 309.5,254.833 309.5,298.167 309.5,341.5C 257.833,341.5 206.167,341.5 154.5,341.5C 154.5,298.167 154.5,254.833 154.5,211.5 Z"/></g>
<g><path style="opacity:0.997" fill="#00429b" d="M 451.5,441.5 C 441.5,441.5 431.5,441.5 421.5,441.5C 421.5,428.167 421.5,414.833 421.5,401.5C 408.167,401.5 394.833,401.5 381.5,401.5C 381.5,414.833 381.5,428.167 381.5,441.5C 371.5,441.5 361.5,441.5 351.5,441.5C 351.333,421.164 351.5,400.831 352,380.5C 353.5,376.333 356.333,373.5 360.5,372C 380.831,371.5 401.164,371.333 421.5,371.5C 421.333,351.164 421.5,330.831 422,310.5C 427.152,301.525 434.652,299.025 444.5,303C 447.473,304.765 449.64,307.265 451,310.5C 451.5,354.165 451.667,397.832 451.5,441.5 Z M 421.5,441.5 C 408.167,441.5 394.833,441.5 381.5,441.5C 381.5,428.167 381.5,414.833 381.5,401.5C 394.833,401.5 408.167,401.5 421.5,401.5C 421.5,414.833 421.5,428.167 421.5,441.5 Z"/></g>
<g><path style="opacity:0.999" fill="#fe8659" d="M -0.5,341.5 C 51.1667,341.5 102.833,341.5 154.5,341.5C 154.5,354.833 154.5,368.167 154.5,381.5C 145.418,381.086 136.418,381.586 127.5,383C 118.783,389.321 117.283,397.155 123,406.5C 124.771,407.304 126.271,408.471 127.5,410C 136.418,411.414 145.418,411.914 154.5,411.5C 154.5,428.167 154.5,444.833 154.5,461.5C 136.167,461.5 117.833,461.5 99.5,461.5C 76.1667,461.5 52.8333,461.5 29.5,461.5C 14.2031,458.865 4.20307,450.199 -0.5,435.5C -0.5,404.167 -0.5,372.833 -0.5,341.5 Z"/></g>
<g><path style="opacity:1" fill="#ff1f3d" d="M 154.5,341.5 C 206.167,341.5 257.833,341.5 309.5,341.5C 309.667,372.835 309.5,404.168 309,435.5C 304.613,450.389 294.779,459.056 279.5,461.5C 256.167,461.5 232.833,461.5 209.5,461.5C 191.167,461.5 172.833,461.5 154.5,461.5C 154.5,444.833 154.5,428.167 154.5,411.5C 163.582,411.914 172.582,411.414 181.5,410C 189.75,404.151 191.583,396.651 187,387.5C 185.457,385.622 183.624,384.122 181.5,383C 172.582,381.586 163.582,381.086 154.5,381.5C 154.5,368.167 154.5,354.833 154.5,341.5 Z"/></g>
<g><path style="opacity:1" fill="#ffe077" d="M 55.5,381.5 C 68.5236,380.692 74.6902,386.692 74,399.5C 70.2642,409.784 63.0976,413.284 52.5,410C 43.7231,403.227 42.3898,395.227 48.5,386C 50.76,384.212 53.0934,382.712 55.5,381.5 Z"/></g>
<g><path style="opacity:1" fill="#fff4f3" d="M 154.5,381.5 C 154.5,391.5 154.5,401.5 154.5,411.5C 145.418,411.914 136.418,411.414 127.5,410C 126.271,408.471 124.771,407.304 123,406.5C 117.283,397.155 118.783,389.321 127.5,383C 136.418,381.586 145.418,381.086 154.5,381.5 Z"/></g>
<g><path style="opacity:1" fill="#e2def2" d="M 154.5,381.5 C 163.582,381.086 172.582,381.586 181.5,383C 183.624,384.122 185.457,385.622 187,387.5C 191.583,396.651 189.75,404.151 181.5,410C 172.582,411.414 163.582,411.914 154.5,411.5C 154.5,401.5 154.5,391.5 154.5,381.5 Z"/></g>
<g><path style="opacity:1" fill="#ffb253" d="M 245.5,381.5 C 254.34,380.67 260.506,384.337 264,392.5C 264.5,405.333 258.333,411.5 245.5,411C 235.208,406.258 232.374,398.758 237,388.5C 239.416,385.577 242.25,383.243 245.5,381.5 Z"/></g>
<g><path style="opacity:0.999" fill="#e2dff4" d="M 351.5,441.5 C 361.5,441.5 371.5,441.5 381.5,441.5C 394.833,441.5 408.167,441.5 421.5,441.5C 431.5,441.5 441.5,441.5 451.5,441.5C 461.5,441.5 471.5,441.5 481.5,441.5C 491.5,441.5 501.5,441.5 511.5,441.5C 511.5,461.833 511.5,482.167 511.5,502.5C 510.196,503.987 509.03,505.654 508,507.5C 505.985,508.697 504.151,510.03 502.5,511.5C 448.5,511.5 394.5,511.5 340.5,511.5C 336.521,509.685 333.688,506.685 332,502.5C 331.333,485.167 331.333,467.833 332,450.5C 336.063,442.555 342.563,439.555 351.5,441.5 Z"/></g>
<g><path style="opacity:0.994" fill="#005dde" d="M 29.5,461.5 C 52.8333,461.5 76.1667,461.5 99.5,461.5C 99.9355,473.243 99.4355,484.91 98,496.5C 94.8099,504.157 89.3099,509.157 81.5,511.5C 70.1667,511.5 58.8333,511.5 47.5,511.5C 39.6901,509.157 34.1901,504.157 31,496.5C 29.5645,484.91 29.0645,473.243 29.5,461.5 Z"/></g>
<g><path style="opacity:0.992" fill="#00429b" d="M 209.5,461.5 C 232.833,461.5 256.167,461.5 279.5,461.5C 279.936,473.243 279.436,484.91 278,496.5C 274.81,504.157 269.31,509.157 261.5,511.5C 250.167,511.5 238.833,511.5 227.5,511.5C 219.69,509.157 214.19,504.157 211,496.5C 209.564,484.91 209.064,473.243 209.5,461.5 Z"/></g>
</svg>
